REM DIRINDEX 1\2,1\4,1\5,1\6,1\7,1\3\8,1\3\9,1\3\10
REM DIRNAME folder01,folder02,folder03,folder04,folder05,folder06,folder07,folder08,folder09,folder10
TITLE ""
FILE "DB4500_5th_5C_18.mp3" MP3
  TRACK 01 AUDIO
    TITLE "0:"
    INDEX 01 00:00:00
  TRACK 02 AUDIO
    TITLE "8:cjc113_4015"
    INDEX 01 00:00:01
  TRACK 03 AUDIO
    TITLE "0:"
    INDEX 01 00:01:26
  TRACK 04 AUDIO
    TITLE "9:cjc113_4016"
    INDEX 01 00:01:40
  TRACK 05 AUDIO
    TITLE "0:"
    INDEX 01 00:03:10
  TRACK 06 AUDIO
    TITLE "10:cjc113_4017"
    INDEX 01 00:03:27
  TRACK 07 AUDIO
    TITLE "0:"
    INDEX 01 00:05:67
  TRACK 08 AUDIO
    TITLE "8:cjc113_4018"
    INDEX 01 00:06:33
  TRACK 09 AUDIO
    TITLE "0:"
    INDEX 01 00:07:39
  TRACK 10 AUDIO
    TITLE "9:cjc113_4019"
    INDEX 01 00:07:56
  TRACK 11 AUDIO
    TITLE "0:"
    INDEX 01 00:08:72
  TRACK 12 AUDIO
    TITLE "10:cjc113_4020"
    INDEX 01 00:09:10
  TRACK 13 AUDIO
    TITLE "0:"
    INDEX 01 00:12:07
  TRACK 14 AUDIO
    TITLE "8:cjc113_4021"
    INDEX 01 00:12:48
  TRACK 15 AUDIO
    TITLE "0:"
    INDEX 01 00:13:57
  TRACK 16 AUDIO
    TITLE "9:cjc113_4022"
    INDEX 01 00:13:73
  TRACK 17 AUDIO
    TITLE "0:"
    INDEX 01 00:15:34
  TRACK 18 AUDIO
    TITLE "10:cjc113_4023"
    INDEX 01 00:15:50
  TRACK 19 AUDIO
    TITLE "0:"
    INDEX 01 00:19:11
  TRACK 20 AUDIO
    TITLE "8:cjc113_4024"
    INDEX 01 00:19:54
  TRACK 21 AUDIO
    TITLE "0:"
    INDEX 01 00:21:06
  TRACK 22 AUDIO
    TITLE "9:cjc113_4025"
    INDEX 01 00:21:23
  TRACK 23 AUDIO
    TITLE "0:"
    INDEX 01 00:22:40
  TRACK 24 AUDIO
    TITLE "10:cjc113_4026"
    INDEX 01 00:22:54
  TRACK 25 AUDIO
    TITLE "0:"
    INDEX 01 00:26:26
  TRACK 26 AUDIO
    TITLE "8:cjc113_4027"
    INDEX 01 00:26:67
  TRACK 27 AUDIO
    TITLE "0:"
    INDEX 01 00:28:19
  TRACK 28 AUDIO
    TITLE "9:cjc113_4028"
    INDEX 01 00:28:37
  TRACK 29 AUDIO
    TITLE "0:"
    INDEX 01 00:29:62
  TRACK 30 AUDIO
    TITLE "10:cjc113_4029"
    INDEX 01 00:30:03
  TRACK 31 AUDIO
    TITLE "0:"
    INDEX 01 00:33:22
  TRACK 32 AUDIO
    TITLE "8:cjc113_4030"
    INDEX 01 00:34:02
  TRACK 33 AUDIO
    TITLE "0:"
    INDEX 01 00:35:04
  TRACK 34 AUDIO
    TITLE "9:cjc113_4031"
    INDEX 01 00:35:21
  TRACK 35 AUDIO
    TITLE "0:"
    INDEX 01 00:36:40
  TRACK 36 AUDIO
    TITLE "10:cjc113_4032"
    INDEX 01 00:36:58
  TRACK 37 AUDIO
    TITLE "0:"
    INDEX 01 00:39:35
  TRACK 38 AUDIO
    TITLE "8:cjc113_4033"
    INDEX 01 00:39:74
  TRACK 39 AUDIO
    TITLE "0:"
    INDEX 01 00:41:04
  TRACK 40 AUDIO
    TITLE "9:cjc113_4034"
    INDEX 01 00:41:22
  TRACK 41 AUDIO
    TITLE "0:"
    INDEX 01 00:42:51
  TRACK 42 AUDIO
    TITLE "10:cjc113_4035"
    INDEX 01 00:42:68
  TRACK 43 AUDIO
    TITLE "0:"
    INDEX 01 00:46:43
  TRACK 44 AUDIO
    TITLE "8:cjc113_4036"
    INDEX 01 00:47:09
  TRACK 45 AUDIO
    TITLE "0:"
    INDEX 01 00:48:42
  TRACK 46 AUDIO
    TITLE "9:cjc113_4037"
    INDEX 01 00:48:59
  TRACK 47 AUDIO
    TITLE "0:"
    INDEX 01 00:50:21
  TRACK 48 AUDIO
    TITLE "10:cjc113_4038"
    INDEX 01 00:50:37
  TRACK 49 AUDIO
    TITLE "0:"
    INDEX 01 00:54:19
  TRACK 50 AUDIO
    TITLE "8:cjc113_4039"
    INDEX 01 00:54:56
  TRACK 51 AUDIO
    TITLE "0:"
    INDEX 01 00:55:71
  TRACK 52 AUDIO
    TITLE "9:cjc113_4040"
    INDEX 01 00:56:14
  TRACK 53 AUDIO
    TITLE "0:"
    INDEX 01 00:57:74
  TRACK 54 AUDIO
    TITLE "10:cjc113_4041"
    INDEX 01 00:58:17
  TRACK 55 AUDIO
    TITLE "0:"
    INDEX 01 01:01:50
  TRACK 56 AUDIO
    TITLE "8:cjc113_4042"
    INDEX 01 01:02:14
  TRACK 57 AUDIO
    TITLE "0:"
    INDEX 01 01:03:33
  TRACK 58 AUDIO
    TITLE "9:cjc113_4043"
    INDEX 01 01:03:41
  TRACK 59 AUDIO
    TITLE "0:"
    INDEX 01 01:04:62
  TRACK 60 AUDIO
    TITLE "10:cjc113_4044"
    INDEX 01 01:04:70
  TRACK 61 AUDIO
    TITLE "0:"
    INDEX 01 01:08:62
  TRACK 62 AUDIO
    TITLE "8:cjc113_4045"
    INDEX 01 01:09:16
  TRACK 63 AUDIO
    TITLE "0:"
    INDEX 01 01:10:26
  TRACK 64 AUDIO
    TITLE "9:cjc113_4046"
    INDEX 01 01:10:35
  TRACK 65 AUDIO
    TITLE "0:"
    INDEX 01 01:11:60
  TRACK 66 AUDIO
    TITLE "10:cjc113_4047"
    INDEX 01 01:11:70
  TRACK 67 AUDIO
    TITLE "0:"
    INDEX 01 01:15:44
  TRACK 68 AUDIO
    TITLE "8:cjc113_4048"
    INDEX 01 01:16:03
  TRACK 69 AUDIO
    TITLE "0:"
    INDEX 01 01:17:22
  TRACK 70 AUDIO
    TITLE "9:cjc113_4049"
    INDEX 01 01:17:33
  TRACK 71 AUDIO
    TITLE "0:"
    INDEX 01 01:18:43
  TRACK 72 AUDIO
    TITLE "10:cjc113_4050"
    INDEX 01 01:18:53
  TRACK 73 AUDIO
    TITLE "0:"
    INDEX 01 01:20:63
  TRACK 74 AUDIO
    TITLE "8:cjc113_4051"
    INDEX 01 01:21:18
  TRACK 75 AUDIO
    TITLE "0:"
    INDEX 01 01:22:54
  TRACK 76 AUDIO
    TITLE "9:cjc113_4052"
    INDEX 01 01:22:64
  TRACK 77 AUDIO
    TITLE "0:"
    INDEX 01 01:24:00
  TRACK 78 AUDIO
    TITLE "10:cjc113_4053"
    INDEX 01 01:24:12
  TRACK 79 AUDIO
    TITLE "0:"
    INDEX 01 01:28:18
  TRACK 80 AUDIO
    TITLE "8:cjc113_4054"
    INDEX 01 01:28:49
  TRACK 81 AUDIO
    TITLE "0:"
    INDEX 01 01:29:64
  TRACK 82 AUDIO
    TITLE "9:cjc113_4055"
    INDEX 01 01:29:70
  TRACK 83 AUDIO
    TITLE "0:"
    INDEX 01 01:31:10
  TRACK 84 AUDIO
    TITLE "10:cjc113_4056"
    INDEX 01 01:31:16
  TRACK 85 AUDIO
    TITLE "0:"
    INDEX 01 01:34:73
